<?xml version="1.0" encoding="iso-8859-1"?>
<!-- Generator: Adobe Illustrator 19.0.0, SVG Export Plug-In . SVG Version: 6.00 Build 0)  -->
<svg version="1.1" id="Layer_1" xmlns="http://www.w3.org/2000/svg" xmlns:xlink="http://www.w3.org/1999/xlink" x="0px" y="0px"
	 viewBox="0 0 512 512" style="enable-background:new 0 0 512 512;" xml:space="preserve">
<circle style="fill:#E1EFFA;" cx="256" cy="256" r="256"/>
<path style="fill:#BCD4E8;" d="M504.492,317.586l-130.012-130.01c-0.044-0.092-0.133-0.179-0.261-0.266l-0.532-0.53
	c-0.842-0.622-2.074-0.929-3.758-0.929c-5.78,0-16.765,3.392-31.24,9.334l-0.013-0.008l-74.739-74.747l-0.041-0.046
	c-0.515-1.183-0.934-1.196-1.196-1.196c-0.886,0-3.231,0-5.217,40.356c-0.182,3.141-0.358,6.367-0.492,9.728
	c0,0.044,0,0.044,0,0.044c-0.302,0-0.66-0.044-0.968-0.044c-11.013,0-21.491,2.122-31.117,5.837c0,0,0,0-0.046,0
	c-0.218,0.084-0.402,0.177-0.62,0.264c-1.014,0.399-2.079,0.794-3.052,1.239c-0.264,0.084-0.53,0.177-0.791,0.31
	c-1.595,0.717-3.174,1.516-4.733,2.342v-0.003l-0.532,0.266c-0.612,0.31-1.193,0.668-1.812,1.019
	c-0.883,0.527-1.861,1.014-2.739,1.59c-0.443,0.266-0.886,0.614-1.329,0.883c-1.777,1.152-3.512,2.365-5.197,3.63
	c-0.517,0.387-1.006,0.801-1.51,1.201c-0.832,0.653-1.69,1.288-2.486,1.976c-0.177,0.151-0.33,0.32-0.507,0.474
	c-4.032,3.469-7.729,7.299-11.057,11.438c-0.02,0.023-0.046,0.046-0.059,0.067c-0.02-0.008-0.036-0.013-0.056-0.02
	c0.02-0.02,0.036-0.049,0.056-0.069c-21.883-9.946-38.679-15.864-46.318-15.864c-2.396,0-3.901,0.576-4.559,1.728
	c-0.154,0.261-0.241,0.55-0.302,0.863c-0.008,0.064,0,0.133-0.013,0.205c-0.015,0.253-0.015,0.512,0.013,0.794
	c0.02,0.092,0.036,0.187,0.059,0.276c0.049,0.276,0.131,0.568,0.228,0.873c0.028,0.084,0.064,0.177,0.1,0.264
	c0.136,0.361,0.305,0.742,0.517,1.126c0.02,0.028,0.028,0.054,0.038,0.079c0.689,1.283,1.697,2.701,2.985,4.221
	c0.041,0.046,0.125,0.133,0.174,0.177l0.092,0.087c2.004,2.324,4.613,4.882,7.572,7.529l0.069,0.074l10.301,10.345l0.077,0.082
	c-0.463,1.016-0.783,2.109-0.783,3.32c0,0.717,0.123,1.393,0.292,2.058c0.036,0.133,0.077,0.261,0.123,0.394
	c0.614,1.91,1.871,3.507,3.558,4.526l9.464,9.464l0.049,0.056c-1.802,6.904-2.834,14.106-2.834,21.56
	c0,11.087,2.122,21.614,5.962,31.378c-2.998,2.127-6.141,4.419-8.835,6.421c-14.804,11.131-31.867,25.457-28.908,30.628l0.837,0.835
	l179.256,179.259C409.521,481.754,481.795,409.454,504.492,317.586z"/>
<path style="fill:#0684BA;" d="M342.692,255.987c0,47.875-38.822,86.7-86.705,86.7c-47.877,0-86.687-38.825-86.687-86.7
	c0-47.885,38.81-86.694,86.687-86.694C303.869,169.293,342.692,208.105,342.692,255.987z"/>
<path style="fill:#F2F9FF;" d="M235.704,328.474c0.353,0.054,1.277-0.261,1.551-0.338c-0.653-0.512-2.04-0.579-2.87-1.075
	c0.074,0.028-2.601-1.572-2.028-0.246c0.133,0.315,0.645,0.028,0.87,0.189c-0.31,0.479-0.456,0.33-0.105,0.548
	c0-0.008-2.975-1.61,0.018-1.723c-2.068-1.846,0.131-1.27-0.525-2.45c-0.443-0.796,1.746-1.551,0.563-2.255
	c-0.556-0.315-1.18-0.261-1.754-0.668c-0.824-0.584-0.046-1.628,0.712-1.531c0.077,0,0.479-1.856,0.62-2.163
	c-0.218-0.1-1.754-1.987-1.377-2.396c0.453-0.466,2.445,1.234,2.941-0.031c0.184-0.456-0.709-1.677-0.632-2.176
	c0.906-0.092,6.82,0.133,5.814-2.573c-0.358-0.947-2.844-2.365-2.588-3.146c0.876,0.133,2.294,1.375,3.228,0.886
	c0.765-0.387,1.367,0.451,2.168-0.451c0.143-0.161,1.449-1.559,1.073-1.825c-0.397-0.008-0.617,0.21-0.65,0.689
	c-0.479-0.64,0.338-1.083,0.765-1.546c0.087,0.141,0.182,0.279,0.302,0.415c0.484-0.753,3.231-4.321,3.313-4.39
	c1.4-1.638,0.246-3.814,1.633-5.12c1.265-1.196,2.639-1.969,4.221-2.593c0.484-0.202,2.232-1.121,2.583-1.004
	c2.9,0.883,2.55-2.593,4.401-4.152c1.874-1.572,0.484-9.6,2.022-10.197c0.829-0.323,3.31-3.361,4.572-4.754
	c1.242-1.334,1.405-3.054,0.927-4.741c-0.73-2.614-1.467-1.137-3.351-2.255c-1.495-0.899-2.655-2.696-4.516-2.949
	c-1.088-0.148-2.24,0.197-3.32-0.133c-0.448-0.156-1.708-0.901-2.163-0.261c0.069-0.113-1.019,0.392-0.945,0.428
	c-0.123-0.074-0.018-1.426-0.366-1.748c-0.566-0.54-2.506-1.096-3.205-1.27c-1.608-0.415-2.012,1.503-2.437-0.791
	c-1.329-0.353-2.647-1.91-2.422-2.289c0.131-0.164-2.074-4.8-2.368-4.372c-0.023-1.567-4.854-3.476-6.075-2.739
	c-1.098,0.799-3.131-0.724-3.807-1.454c-0.773-0.822-0.737-1.708-2.028-2.24c-0.538-0.233-1.475-0.115-1.272-1.055
	c0.218-0.998-2.376-1.19-2.614-2.153c0.374,0.059,0.678-0.123,1.006-0.215c-0.993,0.356-2.22-0.379-3.215,0.428
	c-1.434,1.201-2.312-0.561-3.904-0.253c-1.999,0.387-0.645-0.343-1.917-1.119c0.527,0.323-2.348-1.321-1.672-1.265
	c-0.612-0.069,0.077,0.991-0.589,1.229c-1.039,0.387-1.946,0.62-1.272,1.897c1.152,2.284-2.412,1.201-0.735-0.369
	c0.305-0.276,0.392-3.261,0.727-3.164c-0.428-0.131-3.684,1.987-4.045,2.424c-1.055-1.664-2.803,4.145-3.397,4.178
	c-0.305-1.413-1.667-1.994-2.834-2.437c-1.016-0.376-2.035,2.035-3.343,0.709c-2.353-2.368-1.329-6.188-0.141-8.911
	c0.52-1.244-4.306-1.623-4.908-1.124c-1.18,0.975,0.177-1.974,0.169-1.894c0.141-1.19,0.415-1.976,0.929-1.956
	c0.312-0.719,2.107-3.93,1.928-4.314c-0.732-1.697-3.779,1.298-4.06,2.051c-0.3,0.737-0.891,1.152-1.17,1.812
	c-0.292,0.66-0.85-0.151-1.344,0.105c-1.313,0.753-3.19,0.369-2.908-1.531c0.302-2.319-0.576-6.856,2.01-8.428
	c0.783-0.492,0.911-2.772,1.823-3.581c0.108-0.105,2.721-1.615,2.465-1.91c0.389,0.399,2.435-0.415,2.708,0.118
	c0.182,0.433,1.39,0.888,1.833,0.65c-0.028,0.054,0.197-1.014,0.197-1.024c-0.049-0.01-0.835-0.123-0.794-0.387
	c0.074-0.34,2.537-0.11,2.604-0.102c1.155,0.082,2.033,1.05,2.89,0.468c1.324-0.904,0.512,5.046,1.047,5.586
	c0.289,0.33,0.084,1.047,0.645,0.983c0.75-0.069,0.998-7.734,2.964-9.321c1.449-1.152,3.005-2.199,4.616-3.062
	c0.512-0.261,1.825-0.904,2.092-1.398c-0.054-0.238-0.317-0.54-0.563-0.279c-0.087-0.468,0.701-0.184,0.845-0.671
	c0.148-0.502-0.402-0.65-0.346-0.824c-0.02,0.041,0.492-1.006,0.33-0.852c0.008,0.026,0.015,0.067,0.02,0.102
	c0.814,0.118-0.169-0.758-0.21-0.87c1.047,0.543,0.612-1.144,1.628-1.236c-0.73,0.31-0.589,1.124-0.494,1.618
	c0.218,1.085,1.17-1.505,1.062-1.4c0.957-0.407,2.488-1.203,3.528-1.946c-0.246-0.113-0.507,0.084-0.786-0.133
	c1.057-0.381,2.253-0.246,3.287-0.783c-0.056-1.078,0.596-2.202,1.792-2.412c1.851-0.294,4.032-1.434,5.878-2.066
	c-0.287,0.653,0.156,0.154,0.653,0.387c-0.596-1.562-3.884,2.908-2.324,1.992c1.329-0.758,5.77-1.446,6.377-2.739
	c-0.013-0.054-0.302-0.916-0.289-0.916c-1.096,0-1.193,1.359-2.527,1.359c-2.465-0.038-0.998-1.546-1.495-2.214
	c-0.435,0.1-0.806-0.036-1.098-0.366c0.236-0.056,3.277-0.748,1.672-1.114c-2.609-0.558-4.316,2.335-6.464,2.276
	c1.6-0.988,3.766-3.067,5.704-3.313c2.068-0.287,4.915,0.727,6.743-0.553c1.597-1.119,2.711-0.294,3.63-2.122
	c0.284-0.499-1.175-1.121-1.559-1.201c0.161-0.189,0.492,0,0.599-0.302c-2.419-1.085-2.934-2.171-3.22-4.964
	c-1.239,0.893-5.396,2.811-3.174-0.312c-0.794-0.348-3.315-2.44-4.275-1.001c-0.453,0.653-1.152,1.756-1.882,2.094
	c-1.664,0.748-0.197,0.596-0.745,1.692c-0.942,1.828-3.187,1.572-4.25,3.167c-0.668,1.004-0.888,1.708-1.935,2.179
	c-0.909,0.404-1.257-0.676-0.812-1.539c0.33,0.366,0.62,0.415,0.886,0.148c0.077-0.374-0.494-0.189-0.653-0.343
	c0.325-0.563,0.712-1.075,1.165-1.556c-0.154-0.079-2.483-0.456-2.396-1.07c0.156-1.26-1.446-0.568-1.728-0.955
	c1.244-1.562,1.249-2.296,3.686-3.515c0.837-0.422,5.514-2.813,6.392-2.22c-0.113,0.543-0.707,0.422-1.006,0.699
	c0.678,0.182,2.627,0.387,3.302-0.082c-0.154-0.115-0.947-1.428-0.53-1.723c-0.074,0.056,1.336,0.018,1.444-0.01
	c0.75-0.184,1.58-0.276,2.007-1.042c0.376-0.668,2.844-1.546,3.436-1.216c3.231,1.825-4.385,3.779-4.46,3.571
	c0.151,0.545,2.217-0.361,2.719,1.037c0.128,0.351,2.468,1.111,2.703,0.773c0.131-0.159-0.66-1.011-0.707-1.219
	c2.447,1.175,2.317,0.573,1.915-1.068c-0.387-1.562,1.436,0.095,1.546,0.138c0.399,0.218,2.066-0.732,2.304-1.075
	c-0.596-0.471-1.631-0.443-2.156-1.024c-0.484-0.463,1.293-0.584,0.668-1.103c-0.735-0.62-1.925-0.453-1.513-1.651
	c-0.412-0.115-0.817-0.061-1.198,0.159c0.102,0.223,0.351,0.059,0.435,0.166c-0.399,0.253-0.855,0.292-1.326,0.271
	c0.159-0.197,0.561-0.197,0.568-0.604c-1.262-0.148-1.938,0.604-3.036,0.955c0.307-0.463,0.837-0.604,1.216-0.942
	c-1.208,0.161-2.355,0.604-3.308,1.388c0.151,0.146,0.274,0.284,0.374,0.453c-0.919,0.822-2.163,1.068-3.231,1.567
	c0.177-0.735,0.957-0.548,1.216-1.088c-0.399,0.008-0.778,0.095-1.134,0.261c0.445-0.064,1.823-1.423,2.132-1.774
	c-1.974-0.22-2.803,2.33-4.659,1.964c0.384-0.443,1.162-0.212,1.436-0.927c-0.689,0.084-3.297,1.859-3.73,0.927
	c-0.02-0.056,4.78-1.964,5.274-2.642c-0.33-0.046-0.673,0.287-0.983-0.105c0.238-0.264,0.625-0.282,0.904-0.573
	c-1.562-0.01-6.257,1.892-5.903,2.99c-0.604,0.494-1.247,0.625-1.987,0.307c0.282-0.443,1.306-0.458,0.484-1.114
	c-1.518,0.563-2.985,1.183-4.467,1.818c-3.364,1.495-6.687,3.261-9.812,5.215c-5.204,3.203-9.48,6.986-13.765,11.295
	c-2.271,2.296-10.941,12.421-10.913,14.531c0.036,1.559-0.886,2.926-1.475,4.326c-0.471,1.16-0.512,2.76-1.088,3.817
	c-1.257,2.243-0.681,4.838-1.249,7.411c0.714-0.517,2.186-12.337,3.456-11.889c0.248,0.077-0.791,4.892-1.037,5.501
	c-1.078,2.468,0.325,5.494-0.369,8.087c-0.092,0.246-0.445,1.569-0.461,1.818c-1.183,0.919,0.32,2.294,0.312,3.295
	c0,0.589,3.044,3.267,3.63,3.599c1.277,0.76,1.533-0.589,2.691-0.333c1.047,0.212,1.352,2.099,1.902,2.921
	c0.75,1.119,3.599,0.988,4.073,1.526c0.338,0.392,0.069,2.573,1.354,2.88c-0.005-0.148-0.02-0.929,0.148-1.032
	c0.402-0.246,1.229,1.201,0.95,1.467c-0.42,0.1-0.773-0.054-1.08-0.435c0,0.182-0.218,3.028,0.609,2.483
	c0.026-0.179,0.054-0.353,0.092-0.538c1.068,0.481,0.993,2.079,1.764,2.284c1.06,0.307,1.861,1.644,2.647,2.012
	c0.717,0.358,0.527-2.504,1.889-2.644c1.088-0.092,1.708,2.76,2.081,3.451c0.558,1.001-0.763,3.412-0.02,4.191
	c0.742,0.794-1.884,2.703-2.012,3.497c-0.1,0.617-1.418,1.193-1.375,1.426c0.102,0.681-0.3,1.585-0.538,2.209
	c-0.666,1.784-0.343,1.94,0.812,2.77c0.038,0.028-2.135,4.339-0.888,5.443c1.974,1.615,4.572,5.609,5.204,8.141
	c1.295,3.456,3.264,5.571,6.554,7.299c2.691,1.398,4.588,3.804,4.588,7.014c0.092,1.889-0.187,4.262,0.614,6.06
	c0.55,1.236-0.502,3.274,0.292,4.398c0.512,0.694-0.156,1.096,0.154,1.761c0.317,0.701,1.032,1.864,1.024,2.678
	c-0.013,1.347-0.005,2.947,0.084,4.311c0.036,0.466-0.394,1.236-0.169,1.541c0.32,0.366,2.148,4.864,2.148,6.188
	c-0.005,0.323,1.39-0.084,0.125-1.377c1.518-0.835,1.201,2.711,1.313,2.732c-1.367-0.458-0.484-0.077-0.379,1.664
	c0.067,1.037-0.274,0.532,0.584,0.722c1.334,0.315,0,1.216,0.494,1.93c1.009,1.462,2.555,2.798,3.617,3.912
	C230.705,328.33,233.654,328.036,235.704,328.474C235.986,328.52,235.318,328.379,235.704,328.474z M241.352,187.154
	c-0.481,0.422-0.998,0.504-1.536,0.668C240.192,187.246,240.768,187.343,241.352,187.154z M236.844,186.76
	c0.343-0.036,0.625,0.056,0.814,0.307c0.005,0.125-1.856,0.218-2.13,0.704C235.753,186.949,236.449,187.077,236.844,186.76
	C237.033,187.003,236.449,187.077,236.844,186.76z M232.292,189.975C232.689,190.07,231.731,189.893,232.292,189.975
	C232.31,189.983,232.192,189.97,232.292,189.975z M229.798,185.224c0.177-0.197,0.31-0.161,0.397,0.095
	C230.029,185.513,229.891,185.475,229.798,185.224C229.819,185.121,229.788,185.341,229.798,185.224z M227.318,192.64
	C226.627,192.589,228.06,192.655,227.318,192.64C227.228,192.632,227.418,192.648,227.318,192.64z M228.068,189.76
	c-2.419,2.273-0.553,0.028-1.252,0.732c0.018,0.041,0,0.067-0.038,0.077C226.596,190.344,228.001,189.77,228.068,189.76
	C227.761,190.054,227.648,189.837,228.068,189.76z M227.164,187.09c-0.428,0.512-0.428,0.512-1.039,0.394
	C226.447,187.261,226.867,187.343,227.164,187.09z M237.944,178.578c-0.148,0.005-0.302,0.005-0.563,0.005
	C238.175,177.938,238.016,178.578,237.944,178.578C237.798,178.586,238.057,178.578,237.944,178.578z M239.7,177.423
	c-0.276,0.3-0.645,0.128-0.983,0.271C239.068,177.009,239.124,177.001,239.7,177.423z M229.924,178.209
	c0.205-0.189,0.453-0.271,0.704-0.256C230.874,178.296,229.158,178.491,229.924,178.209
	C230.029,178.03,229.827,178.255,229.924,178.209z M229.476,177.72c0.284,0.123,0.261,0.246-0.069,0.387
	C229.176,177.969,229.21,177.843,229.476,177.72C229.588,177.72,229.353,177.743,229.476,177.72z M216.847,199.291
	c0.02,0-3.786,1.516-3.497,0.576c-0.1,0.294,1.306-1.068,1.011-0.947c0.312-0.131,2.862-0.287,3.602-0.282
	C217.574,199.022,217.213,199.155,216.847,199.291C215.99,199.608,217.213,199.155,216.847,199.291z M219.886,197.414
	c3.133,0.302-1.869,1.242-2.404,0.689C218.196,197.494,219.018,197.312,219.886,197.414
	C220.132,197.443,219.018,197.312,219.886,197.414z M219.369,177.905c0.837-0.538,1.736-0.952,2.829-1.201
	c-0.804,0.676-1.871,0.945-2.857,1.216L219.369,177.905z M219.543,194.852c-0.148,0.151-0.276,0.141-0.407,0
	C219.323,194.783,219.51,194.726,219.543,194.852C219.594,194.99,219.51,194.726,219.543,194.852z M218.616,196.733
	C218.547,196.733,218.309,196.667,218.616,196.733C218.632,196.733,218.511,196.708,218.616,196.733z M217.69,195.131
	c1.142,0.532,0.484,2.312-0.486,0.927c-0.038,0.819-1.469,2.204-2.243,2.368c0.302-0.323,0.399-0.681,0.31-1.075
	c-0.246-0.182-0.717,0.366-0.98,0.358c0.108,0.499,2.051-3.328,0.422-2.232c-0.607,0.463-4.526,4.641-4.756,4.411
	c-0.366-0.366,1.733-3.446,1.889-3.553C213.189,195.215,215.99,194.335,217.69,195.131z M215.511,180.554
	c0.159-0.108,1.408-0.873,1.569-0.691c0.422,0.502-2.012,1.121-2.135,1.137C215.086,180.703,215.316,180.657,215.511,180.554
	C215.946,180.298,215.316,180.657,215.511,180.554z M215.772,190.781c-0.005,0.054-0.492,1.024-0.814,0.64
	C214.725,191.15,215.685,190.344,215.772,190.781C215.734,191.035,215.749,190.659,215.772,190.781z M213.012,182.876
	c0.156,0,2.186-1.265,2.255-0.745C215.288,182.28,212.785,182.912,213.012,182.876z M212.457,184.988
	c-0.125,0.228-0.246,0.34-0.532,0.34C212.037,185.093,212.214,185.055,212.457,184.988z M211.034,189.893
	c0.3-0.218,0.955-1.285,0.625-1.708c0.174,0.225-1.224-0.148-0.584-0.387c0.264-0.092,1.861-0.96,2.115-0.689
	c0.456,0.463-1.987,3.034-2.483,3.249C210.752,190.095,210.903,189.99,211.034,189.893
	C211.433,189.583,210.903,189.99,211.034,189.893z M212.429,193.126c1.761-0.55,2.388-1.554,3.448-0.21
	c0.392,0.502,0.323,1.795-0.612,1.482c0.248,0.095-2.852-0.207-2.286-0.55c-0.625,0.402-1.825,0.668-2.552,0.346
	C211.103,193.805,211.707,193.37,212.429,193.126C212.859,192.983,211.707,193.37,212.429,193.126z M209.992,189.865
	c0.156,0.407,0.038,0.625-0.443,0.701C209.741,190.272,209.866,190.07,209.992,189.865z M185.096,227.709
	C184.302,227.681,185.718,227.681,185.096,227.709C185.006,227.699,185.172,227.699,185.096,227.709z M195.131,234.911
	C194.913,234.985,195.763,234.772,195.131,234.911C195.11,234.926,195.244,234.898,195.131,234.911z M219.651,243.013
	C219.228,242.949,220.16,243.057,219.651,243.013C219.615,243.013,219.709,243.018,219.651,243.013z M223.67,314.859
	C222.986,314.742,224.038,314.312,223.67,314.859C223.498,314.839,223.688,314.839,223.67,314.859z M225.444,278.922
	C225.196,278.669,225.592,279.066,225.444,278.922C225.431,278.894,225.5,278.966,225.444,278.922z M225.725,301.327
	C225.288,301.468,226.209,301.13,225.725,301.327C225.608,301.363,225.802,301.292,225.725,301.327z M228.096,325.437
	c-0.32-0.174-0.32-0.279-0.02-0.33C228.429,325.235,228.434,325.368,228.096,325.437
	C227.958,325.43,228.204,325.489,228.096,325.437z M231.217,326.815c-0.323-0.064-0.294-0.197,0.1-0.379
	C231.583,326.548,231.555,326.679,231.217,326.815C231.084,326.815,231.301,326.779,231.217,326.815z M224.594,317.896
	c-0.036,0.028-0.077,0.028-0.108,0.036C224.586,317.86,224.614,317.837,224.594,317.896z M232.361,173.619c0,0-0.005,0-0.02,0
	c0.015-0.01,0.015-0.02,0.015-0.02L232.361,173.619z M202.918,187.574c0,0-0.015,0-0.02,0H202.918z M203.73,186.87L203.73,186.87
	L203.73,186.87z M341.276,240.456h0.008c-1.692-6.244-2.957-12.421-5.555-18.468c-3.062-7.194-7.107-13.97-11.999-20.073
	c-4.6-5.765-9.923-10.929-15.831-15.352c-2.865-2.148-5.862-4.106-8.991-5.893c-1.487-0.858-3.021-1.654-4.549-2.422
	c-0.681-0.317-3.041-0.95-3.392-1.521c0.023,0.256,1.377,0.945,1.551,1.134c-0.906-0.233-3.336-1.265-3.364-1.426
	c0.044-0.113,0.248,0,0.233-0.197c-1.37-0.863-6.495-2.747-7.521-1.359c0.225-0.269,3.528,3.561,3.633,4.239
	c0.202,1.49,2.534,3.067,4.017,3.553c2.071,0.694,0.52-0.23,1.398-0.722c0.548-0.282,1.068,0.937,1.592,0.666
	c-0.013-0.018,0-0.023,0.015-0.038c-0.141-0.276-0.302-0.561-0.471-0.852c-0.141,0,3.743,4.019,4.242,3.151
	c-0.474-1.088-1.16-2.332-2.263-3.356c-0.983-0.914-2.519-1.006-3.574-1.917c-0.54-0.463-2.519-1.91-2.732-2.586
	c2.614,0.092,5.627,5.627,8.246,3.479c-0.351-0.256-0.707-0.522-1.052-0.812c0.479,0.148,2.662,0.847,1.925,1.764
	c-2.081-0.366,1.782,1.759,1.833,1.989c-0.374-0.028-0.632-0.325-0.983-0.358c0.141,0.735,2.204,1.475,2.345,2.721
	c-1.242,0.187-0.701-0.758-1.503,0.253c-0.261,0.32-1.37,0.225-1.987,0.266c-1.428,0.123-3.013-2.312-4.076-3.062
	c0.443,1.362,1.18,1.994,2.706,2.954c0.737,0.422-1.024,0.612-1.014,1.219c0.064,0,0.479,0.218,0.466,0.335
	c0,0.077-0.392-0.279-0.466-0.335c0.156-0.092-0.238,2.388-0.271,2.353c1.172,1.362-1.572,0.975-1.638,1.011
	c0.218,0.31,0.648,0.484,0.753,0.927c-0.801,0.056-1.446-0.072-2.232,0.218c1.137,0.325,7.337,3.205,5.998,5.361
	c-0.451,0.707-4.664-0.166-5.43-0.205c-1.636-0.108-0.113,1.556-0.084,1.754c0.266,1.236,1.229,1.784,1.144,3.223
	c-0.069,1.024,0.978,1.062,1.301,1.915c0.274,0.763,0.113,0.824,0.906,0.932c1.393,0.172,1.421-0.036,2.593,0.878
	c0.814,0.64,1.144-0.612,2.127-0.64c2.465-0.113,0.366-0.612,1.546-0.945c1.462-0.404-0.407-2.703-0.315-3.133
	c0.097-0.607-0.092-1.275,0.714-1.503c1.236-0.333-0.343-1.631-0.428-1.984c-0.238-1.011,3.448,0.878,3.005-1.718
	c2.115,0.655,4.301,2.588,6.257,3.686c1.16,0.691,2.312,1.359,3.154,2.452c0.998,1.303-1.441,0.768-1.595,1.142
	c-0.148,0.412,2.158,1.457,2.527,1.446c0.043-0.233-0.279-1.569-0.323-1.802c-0.113-0.922-1.441-1.833-1.347-2.568
	c0.435,0.036,0.822,0.207,1.144,0.481c-1.242-1.541-3.246-1.687-4.664-2.811c-0.87-0.709-1.93-1.265-2.76-1.994
	c-0.005,0-1.516-1.917-0.463-1.549c1.651,0.576,3.456,2.25,5.14,3.133c1.341,0.712,1.687,1.134,2.67,2.289
	c0.379,0.451,2.458,2.842,2.908,2.934c-0.015-0.026,1.692,1.492,2.368,1.718c-0.31-0.694-0.579-1.562-0.914-2.117
	c-0.471-0.75-2.396-1.172-2.396-2.299c0.43,0.031,0.492-0.422,1.421-0.394c-0.499-0.01,0.602-0.735,0.532-0.63
	c-1.789-1.016-4.214-4.017-4.864-6.054c0.489,0.02,0.773,0.681,1.298,0.338c-0.174-0.338-0.218-0.701-0.174-1.08
	c0.148,0.161,1.841,1.615,1.51,1.907c-0.484-0.008-0.87-0.205-1.216-0.581c0.225,0.85,1.096,0.868,1.434,1.462
	c0.051-0.236-0.12-0.43,0.077-0.694c1.495,0.617,4.516,2.985,4.931,4.646c-0.653,0.069-1.902-1.318-2.337-0.973
	c-0.148,0.33-0.136,0.66,0.069,0.988c-0.205,0-0.379,0.056-0.556,0.136c0.233,0.197,0.374,0.451,0.415,0.745
	c-0.241,0.077-0.499,0.151-0.745,0.218c0.21,0.84,4.613,5.018,4.915,4.608c0.105-0.148-0.182-0.568-0.105-0.643
	c0.241-0.264,0.927,0.945,1.285,0.712c0.282-0.189-0.294-0.566,0.036-0.73c0.668-0.338,3.302,4.813,3.617,5.425
	c1.277,2.399,0.428,0.937-0.532,1.265c-0.148,0.243-0.261,0.502-0.266,0.799c-1.546-0.356-3.226-1.236-4.483-2.135
	c-1.974-1.441,0.655,3.896-0.497,3.223c-0.681-0.379-1.068-0.95-1.917-1.011c-1.193-0.125-1.546-1.426-2.647-1.792
	c-0.919-0.302-4.495-0.617-4.032-2.284c0.374-1.405-1.434-2.557-2.035-3.087c-0.31-0.284-4.278,0.23-4.931,0.417
	c-1.098,0.358-2.826,0.717-3.443,1.741c-1.052,1.897-3.482-0.604-4.467-0.212c-0.512,0.207-0.013,1.774-0.287,2.276
	c-0.376,0.742-1.354,0.801-1.6,1.682c-0.422,1.633,0.814,2.959,0.246,4.46c-0.451,1.183-2.752,1.7-2.788,2.683
	c-0.008,0.512-0.105,1.103-0.596,1.38c-1.047,0.586,0.028,1.966-0.625,2.665c-3.517,3.574,1.129,7.094,0.33,11.041
	c-0.435,2.214-0.714,2.678,0.253,4.6c0.218,0.492,0.051,3.948,1.813,2.557c0.225,2.004,2.824,2.435,3.279,4.355
	c0.563,2.276,2.788,3.279,4.536,4.636c0.694,0.55,1.285,1.247,2.079,1.664c1.434,0.737,2.401-0.399,3.766-0.786
	c1.234-0.34,2.514-0.218,3.686,0.338c0.66,0.317,5.624-3.21,6.981-2.542c0.986,0.486,1.039,1.697,1.498,2.55
	c0.637,1.229,2.015-0.371,2.929,0.036c1.631,0.732,2.115,6.694,0.722,7.788c-1.016,0.763,1.349,4.024,1.672,4.685
	c0.919,1.841,1.761,5.064,1.475,7.114c-0.233,1.651,0.218,4.27-0.722,5.729c-0.95,1.459-1.498,2.993-2.255,4.669
	c-1.969,4.242-0.084,9.052-1.761,13.478c-1.024,2.255-0.842,4.662-1.405,7.03c-0.358,1.526-2.196,3.715-1.49,5.309
	c1.124-0.998,2.775-0.87,4.009-1.49c2.565-1.262,3.791-4.234,5.655-6.208c0.991-1.039,1.623-2.353,2.204-3.661
	c0.556-1.216,1.7-1.994,2.227-3.187c1.298-3.041,2.478-6.047,3.804-9.075c2.739-6.546,3.195-12.823,4.157-19.812
	C342.646,254.892,342.666,247.844,341.276,240.456z M334.73,223.235c-0.353-0.881-4.972-7.652-4.419-8.023
	c0.602-0.387,10.478,17.091,9.411,19.802C338.196,231.035,336.415,227.156,334.73,223.235
	C334.715,223.188,335.073,224.033,334.73,223.235z M338.964,254.162c-0.189-0.484,0.069-0.906,0.189-1.467
	C339.372,253.297,339.046,253.701,338.964,254.162z M338.452,256.901c-0.023-0.292-0.036-0.535,0.161-0.745
	C338.752,256.458,338.619,256.643,338.452,256.901z M336.806,279.337c-0.174,0.077-0.366,0.133-0.532,0.189
	c-0.317,0,0.584-0.443,0.632-0.463C336.858,279.217,336.858,279.283,336.806,279.337
	C336.684,279.534,336.858,279.283,336.806,279.337z M337.06,270.223c-0.005-0.814,0.015-0.865,0.842-1.393
	C337.743,269.419,337.152,269.681,337.06,270.223z M337.994,265.987c-0.015-1.526-0.069-3.302,0.266-4.79
	c0.061,2.578,0.189,5.181,0.105,7.78C337.961,268.436,337.994,266.647,337.994,265.987
	C337.987,265.426,337.994,266.506,337.994,265.987z M339.343,270.84c-0.02,1.39-0.218,5.169-1.144,6.257
	c0.1-2.36,0.957-4.48,1.014-6.828C339.407,270.51,339.343,270.676,339.343,270.84C339.343,270.986,339.343,270.676,339.343,270.84z
	 M340.431,256.66c-0.392,1.672-0.008,2.189-1.006,3.103c-0.015-1.239-0.458-3.592,0.806-4.319
	C340.406,255.846,340.544,256.174,340.431,256.66C340.262,257.357,340.544,256.174,340.431,256.66z M286.011,337.188
	c0.133,0.253-10.908,3.359-12.029,3.602c-4.595,0.97-9.236,1.559-13.926,1.797c-8.904,0.435-18.232-0.376-26.793-2.977
	c1.106,0.113,2.445,0.689,3.561,0.512c-1.075-0.668-2.388-0.435-3.351-1.277c3.581,0.589,6.994,0.315,10.268,0.745
	c-0.348-0.458-3.336-1.172-3.305-1.482c0.417-0.036,2.719-0.12,2.798-0.174c1.088-0.842-1.725-0.745-1.462-1.341
	c0.069-0.166,0.837,0.092,1.116-0.261c0.428-0.568,0-0.87,0.169-1.149c0.12-0.241,4.431-0.993,4.89-0.801
	c-0.507,0.294-1.088-0.044-0.878,0.796c-0.428-0.064-1.766-0.015-1.853,0.561c0.031-0.141,1.467,1.856,1.521,1.953
	c0.494,0.788,2.214,1.249,2.383,2.186c0.266,1.58,8.481,1.413,9.72,1.285c3.059-0.358,5.932-1.459,8.952-1.979
	c1.789-0.323,3.587-0.822,5.399-0.991c0.858-0.092,3.666-1.075,4.332-0.858C277.932,338.803,284.493,336.901,286.011,337.188
	C286.024,337.229,285.765,337.152,286.011,337.188z M335.946,289.336c0.351-0.899,0.637-1.81,1.075-2.675
	C336.73,287.59,336.346,288.448,335.946,289.336z M337.37,285.742c0.051-0.113,0.09-0.225,0.141-0.33
	C337.51,285.553,337.434,285.645,337.37,285.742z M242.56,172.257c-0.456-0.095-0.955-0.044-1.446-0.102
	c0.253-0.23,1.713-0.284,1.075-0.684c2.007-1.226,6.188-1.49,8.476-1.198c2.588,0.32,5.176-0.494,7.706-0.074
	c1.039,0.148,1.92,0.169,2.954,0.248c0.901,0.095-0.118,1.021,0.901,1.162c0.576,0.084,1.789,1.446,2.337,1.144
	c-0.02,0.955-0.448,0.282-0.154,1.18c0.069,0.197,1.129,0.801,1.088,0.87c-0.097,0.141-2.977-0.061-2.844-0.028
	c-0.23-0.036,0.044,0.451,0.233,0.366c0.576,0.161,1.812-0.036,2.445,0.02c-1.454,1.313-3.617,1.152-5.24,2.212
	c-0.986,0.635-2.473,0.576-3.558,0.963c0,1.126-0.837,2.478-1.567,3.61c-0.52,0.786-4.186-1.029-4.572-1.503
	c-0.786-0.952-2.619-3.479-0.64-4.273c2.399-0.934,0.005-0.164-0.699-0.681c0.576-0.796,1.216-0.522,2.127-0.399
	c-0.468-0.64-1.042-0.812-1.736-0.463c-0.236-0.691,0.988-1.316-0.095-2.051c-0.456-0.32-2.995,0.054-3.069-0.397
	c-0.154-1.114,3.09-0.512,3.666-1.426C247.519,170.245,244.913,172.613,242.56,172.257
	C242.102,172.163,242.995,172.314,242.56,172.257z M288.207,188.777c0.379-0.051-0.504-1.285-0.722-1.531
	c0.271,0.028,0.504,0.049,0.758-0.105c-0.202-0.576-2.724-2.03-2.908-1.917c-0.955,0.594-2.148-2.079-2.268-2.435
	c1.631-0.243,2.647,1.528,4.134,2.237c1.236,0.612,5.768,2.767,5.908,4.122c0.092,0.689-3.428,0.397-3.955,1.206
	c-0.399-0.983,0.881-0.975,0.845-1.303C289.958,188.826,288.376,188.754,288.207,188.777
	C288.102,188.797,288.735,188.703,288.207,188.777z M242.012,190.054c-0.238,0.177-3.32,3.08-3.238,3.364
	c0.069,0.264,3.19,0.077,3.722,0.369c-0.028,0.358-0.456,0.182-0.52,0.481c0.397,0,1.651-0.773,1.866-0.54
	c0.023,0.192-0.003,0.381-0.102,0.568c1.377,1.359,1.249-1.595,1.321-1.756c-0.97-0.125,0.202-1.492-1.434-0.911
	c0.113-0.038-1.769-0.556-1.664-0.453c-0.156-0.141,1.329-1.434,1.428-1.6C242.527,189.368,242.419,189.742,242.012,190.054
	C241.477,190.433,242.117,189.97,242.012,190.054z M245.038,193.265C245.158,193.39,244.818,193.39,245.038,193.265
	C245.061,193.285,245.005,193.275,245.038,193.265z M244.342,193.185c0.082-0.108,0.604-0.317,0.289-0.013
	C244.518,193.377,244.063,193.513,244.342,193.185C244.372,193.152,244.28,193.265,244.342,193.185z M242.158,189.652h0.028
	c0,0,0,0.013,0.005,0.028C242.186,189.668,242.186,189.668,242.158,189.652z M239.414,192.443c0.069,0,0.141,0,0.2,0.054
	C239.539,192.494,239.196,192.479,239.414,192.443C239.483,192.443,239.35,192.448,239.414,192.443z M209.326,228.598
	c-0.85,0.095,0.548-0.658,0.435-0.934c-0.576-1.313-4.508-1.615-4.874-2.657c0.172-0.064,0.294-0.187,0.343-0.356
	c-1.349-0.55-2.035,1.106-3.267,0.988c2.542-4.278,8.801,0.625,11.32,2.601C211.973,228.401,210.639,228.421,209.326,228.598
	C209.211,228.611,210.053,228.495,209.326,228.598z M212.595,230.886c-0.63-0.279,2.079-0.256,2.44-0.407
	c-0.527-0.822-0.056-1.265-1.088-1.585c0.955-1.157,4.111,0.192,5.105,0.622c-0.084,0.148-0.287,0.02-0.379,0.189
	c0.077,0.082,2.163,1.784,0.765,1.216c-1.539-0.645-2.396,0.253-3.469,0.87C215.117,230.574,213.722,231.424,212.595,230.886
	C212.465,230.828,212.851,230.999,212.595,230.886z M286.003,187.031c1.475,1.528-0.822,2.688-1.848,1.713
	c-0.504-0.535-0.218-1.748-1.382-2.117c0.307-0.092,0.632-0.184,0.927-0.302C282.906,184.443,285.622,186.627,286.003,187.031
	C286.326,187.379,285.891,186.908,286.003,187.031z M266.796,177.761c-0.077-0.312,2.127-0.174,2.478-0.243
	c0.596-0.095,5.015,0.346,3.459,1.047c-1.211,0.538-2.957,1.152-4.088,0.115C268.367,178.442,266.824,177.815,266.796,177.761
	C266.752,177.567,266.877,178.048,266.796,177.761z M306.936,199.542c0.507,0,1.769,1.971,1.559,2.296
	c-0.596,0.932-1.572-1.418-2.186-1.784C306.537,199.892,306.742,199.734,306.936,199.542z M238.339,172.849
	c1.498-1.121,1.846-0.489,3.715-0.3C241.449,173.094,240.013,173.204,238.339,172.849
	C238.753,172.541,240.013,173.204,238.339,172.849z M271.437,171.556c-1.124-0.302-2.271-0.343-3.346-0.781
	c1.288-0.148,2.836,0.348,3.73,0.612C272.125,171.476,271.36,171.538,271.437,171.556
	C270.313,171.254,271.526,171.574,271.437,171.556z M268.093,170.775c-0.113,0.02-0.246,0.028-0.371,0.044
	C267.848,170.698,267.976,170.691,268.093,170.775C267.981,170.796,268.037,170.77,268.093,170.775z M209.667,230.95
	c0.236,0.028,0.374,0.156,0.415,0.374c-0.159,0.625-2.102-0.251-2.309-0.525C208.448,230.4,209.073,230.63,209.667,230.95z
	 M223.619,230.902C222.597,233.423,219.986,229.13,223.619,230.902C223.468,231.27,223.007,230.607,223.619,230.902z
	 M227.656,243.167L227.656,243.167c0.023-0.067,0.092-0.095,0.182-0.108C227.789,243.1,227.732,243.128,227.656,243.167z
	 M228.001,243.1c-0.044-0.008,0.282-1.032,0.937-1.08C229.727,242.483,228.385,243.146,228.001,243.1
	C227.945,243.092,228.864,243.192,228.001,243.1z M236.216,172.314c-0.689,0.461-1.523,0.156-2.25,0.425
	C234.972,172.047,235.428,172.101,236.216,172.314C235.528,172.774,236.088,172.285,236.216,172.314z M210.161,223.148
	c-0.274-1.032-0.673-1.055,0.028-1.956C210.452,222.149,210.452,222.725,210.161,223.148
	C210.053,222.72,210.452,222.725,210.161,223.148z M191.36,259c-0.013,0.387-0.187,0.512-0.55,0.387
	c-0.123-0.118-0.179-1.364,0.046-1.623C191.027,258.166,191.201,258.565,191.36,259C191.432,259.164,191.201,258.565,191.36,259z
	 M234.824,191.186c0.801-0.028,1.449,0.225,2.166,0.758C236.045,192.118,235.428,191.754,234.824,191.186z M306.614,199.191
	l0.015,0.008c-0.246-0.059-1.651-0.927-1.075-1.377C305.964,197.512,306.568,199.05,306.614,199.191z M321.175,206.426
	c-0.274-0.276-0.85-0.082-0.998-0.653c0.484,0.259,1.032,0.133,1.503,0.504C321.49,206.403,321.334,206.587,321.175,206.426
	C320.901,206.147,321.334,206.587,321.175,206.426z M237.445,172.792c-0.151-0.207-0.394-0.077-0.543-0.248
	c0.399-0.453,0.952-0.284,1.436-0.422C238.321,172.163,237.745,173.233,237.445,172.792
	C237.294,172.585,237.524,172.925,237.445,172.792z M235.008,173.332c-0.643,0.474-1.298,0.947-2.191,0.878
	C233.408,173.581,234.222,173.486,235.008,173.332z M234.78,194.796c0.179,0.028,0.356-0.026,0.645-0.038
	c-0.852,1.042-1.848-0.422-1.633-0.474C233.641,194.317,234.729,194.783,234.78,194.796
	C234.959,194.824,234.455,194.744,234.78,194.796z M235.136,173.74c0.604-0.479,1.313-0.566,2.035-0.504
	C236.547,173.609,235.881,173.806,235.136,173.74z M302.986,201.628c-0.676-0.1,1.277-0.717,0.576,0.182
	C303.342,201.789,303.16,201.738,302.986,201.628C302.886,201.608,303.188,201.646,302.986,201.628z M324.644,206.579
	c-0.43-0.212-0.586-0.479-0.458-0.963C324.534,205.873,324.664,206.136,324.644,206.579z M236.618,176.886
	c0.269-0.435,0.52-0.55,1.377-0.532C237.565,176.837,237.123,176.906,236.618,176.886z M230.377,179.794
	c-0.502,0.274-0.873,0.456-1.4,0.435C229.353,179.794,229.788,179.814,230.377,179.794z M282.406,183.375
	c-0.1,0.189-0.008,0.305,0.141,0.451c-0.161-0.064-0.758-0.822-0.302-0.95C282.455,182.981,282.506,183.13,282.406,183.375
	C282.307,183.565,282.463,183.263,282.406,183.375z M203.991,225.83c-0.018,0.31-0.169,0.451-0.438,0.443
	C203.418,226.02,203.86,225.295,203.991,225.83C204.045,226.012,203.96,225.725,203.991,225.83z M233.183,315.873
	c0.223,0.084,0.353,0.253,0.387,0.504C233.569,317.13,232.2,315.971,233.183,315.873
	C233.334,315.85,232.965,315.881,233.183,315.873z M231.217,180.242c-0.161,0.246-0.387,0.379-0.758,0.502
	C230.646,180.337,230.902,180.275,231.217,180.242z M192.01,258.857C191.928,259.73,191.739,258.025,192.01,258.857
	C191.992,258.954,191.972,258.762,192.01,258.857z M237.005,181.691c0.028-0.02,0.077,0.02,0.115,0.028
	C237.018,181.78,236.82,181.78,237.005,181.691z M233.137,173.425c-0.102,0.005-0.212,0.023-0.312,0.049
	C232.924,173.394,233.029,173.394,233.137,173.425z M232.791,173.481c-0.059,0,0.028-0.008,0.036-0.008
	C232.817,173.473,232.791,173.473,232.791,173.481z M232.374,173.599c0,0-0.013,0.01-0.013,0.02
	C232.356,173.599,232.361,173.599,232.374,173.599z M232.374,173.599c0.095-0.125,0.246-0.113,0.387-0.118
	C232.66,173.627,232.53,173.655,232.374,173.599z M235.121,173.74h0.015C235.136,173.747,235.121,173.755,235.121,173.74z
	 M235.121,173.747c-0.028,0.169-0.143,0.141-0.261,0.141C234.911,173.747,235.008,173.74,235.121,173.747z M203.231,262.566
	C203.041,262.42,203.361,262.684,203.231,262.566C203.146,262.502,203.331,262.659,203.231,262.566z M295.946,180.554
	C296.481,180.703,295.99,180.664,295.946,180.554C295.946,180.554,295.967,180.636,295.946,180.554z M282.563,183.836
	c-0.008-0.01-0.008-0.01-0.015-0.01c0.044,0,0.061,0.046,0.044,0.118C282.591,183.913,282.568,183.869,282.563,183.836
	C282.555,183.826,282.568,183.869,282.563,183.836z M234.854,173.885c0,0,0,0,0.005,0c0,0.008-0.005,0.008-0.013,0.008
	C234.847,173.893,234.854,173.893,234.854,173.885z M234.673,173.921c0.056-0.015,0.115-0.015,0.174-0.028
	C234.765,174.013,234.708,174.013,234.673,173.921C234.729,173.908,234.678,173.937,234.673,173.921z M313.667,200.722v-0.013
	l0.013,0.02L313.667,200.722z M244.854,256.62C244.6,256.404,245.046,256.466,244.854,256.62
	C244.818,256.602,244.913,256.556,244.854,256.62z M286.065,337.167c-0.02,0.02-0.036,0.02-0.054,0.02
	c0.013-0.036,0.021-0.061,0.054-0.051C286.065,337.137,286.065,337.16,286.065,337.167z M286.011,337.188
	C286.003,337.188,286.003,337.188,286.011,337.188L286.011,337.188z M216.753,195.244c0.044-0.01,0.847-0.105,0.558,0.205
	C217.004,195.617,216.827,195.533,216.753,195.244C216.847,195.233,216.76,195.412,216.753,195.244z M211.684,188.186
	c-0.223-0.148-0.169-0.31,0.148-0.479C212.106,187.807,212.065,187.968,211.684,188.186
	C211.587,188.173,211.876,188.137,211.684,188.186z"/>
<path style="fill:#03628A;" d="M292.357,177.28c19.94,15.009,32.819,38.858,32.819,65.705c0,45.399-36.795,82.186-82.184,82.186
	c-26.849,0-50.708-12.879-65.702-32.812c13.752,29.709,43.812,50.33,78.694,50.33c47.882,0,86.705-38.825,86.705-86.7
	C342.692,221.097,322.068,191.055,292.357,177.28z"/>
<path style="fill:#CEE2F2;" d="M324.644,206.579c-0.43-0.212-0.586-0.479-0.458-0.963
	C324.534,205.873,324.664,206.136,324.644,206.579z M235.704,328.474c-2.051-0.438-5.002-0.143-6.738-1.974
	c-0.86-0.899-2.012-1.946-2.972-3.098c2.074,0.443,4.17,0.781,6.295,1.055c-0.118,0.238-0.036,0.576,0.852,1.375
	c-2.993,0.113-0.018,1.715-0.018,1.723c-0.351-0.218-0.205-0.069,0.105-0.548c-0.225-0.161-0.737,0.125-0.87-0.189
	c-0.576-1.329,2.099,0.271,2.028,0.246c0.829,0.497,2.217,0.563,2.87,1.075c-0.274,0.077-1.172,0.384-1.539,0.338
	C235.625,328.443,235.451,328.422,235.704,328.474z M228.073,325.107c-0.3,0.051-0.3,0.156,0.02,0.33
	C228.434,325.368,228.429,325.235,228.073,325.107z M231.314,326.436c-0.394,0.182-0.422,0.315-0.1,0.379
	C231.555,326.679,231.583,326.548,231.314,326.436z M321.679,206.277c-0.471-0.374-1.016-0.246-1.503-0.504
	c0.148,0.571,0.722,0.374,0.998,0.653c-0.182-0.174-0.061-0.056,0.008,0C321.334,206.579,321.505,206.403,321.679,206.277z
	 M313.38,200.545c0.097,0.059,0.195,0.1,0.287,0.177c-0.113-0.125-0.253-0.212-0.374-0.323
	C313.331,200.448,313.349,200.497,313.38,200.545z M313.667,200.722l0.013,0.005l-0.013-0.02V200.722z M235.72,328.474h-0.013
	C235.802,328.484,235.776,328.474,235.72,328.474z M334.828,223.46c-0.044-0.102-0.105-0.243-0.097-0.225
	C334.766,223.316,334.799,223.386,334.828,223.46z M285.952,337.188c-1.608-0.253-8.028,1.587-8.428,0.141
	c-0.668-0.218-3.474,0.765-4.332,0.858c-1.812,0.166-3.61,0.668-5.399,0.991c-3.021,0.52-5.893,1.623-8.952,1.979
	c-1.242,0.128-9.454,0.294-9.72-1.285c-0.169-0.934-1.889-1.398-2.383-2.186c-0.054-0.097-1.49-2.092-1.521-1.953
	c0.087-0.576,1.426-0.625,1.853-0.561c-0.21-0.837,0.374-0.499,0.878-0.796c-0.456-0.189-4.769,0.563-4.89,0.801
	c-0.169,0.279,0.261,0.584-0.169,1.149c-0.279,0.353-1.047,0.092-1.116,0.261c-0.264,0.596,2.55,0.499,1.462,1.341
	c-0.082,0.054-2.381,0.141-2.798,0.174c-0.033,0.31,2.957,1.024,3.305,1.482c-3.272-0.43-6.687-0.156-10.268-0.745
	c0.963,0.842,2.276,0.609,3.351,1.277c-1.116,0.174-2.455-0.399-3.561-0.512c8.561,2.601,17.889,3.412,26.793,2.977
	c4.69-0.238,9.334-0.827,13.926-1.797c1.121-0.246,12.163-3.351,12.029-3.602C285.87,337.167,285.914,337.188,285.952,337.188z
	 M340.426,256.704c0-0.013,0-0.013,0.008-0.044C340.339,257.044,340.39,256.86,340.426,256.704z M338.514,230.052
	c0.435,1.539,0.85,3.054,1.242,4.605C339.85,233.774,339.343,232.087,338.514,230.052z M341.632,262.313
	c-0.963,6.989-1.418,13.268-4.157,19.812c-1.329,3.029-2.506,6.034-3.804,9.075c-0.527,1.193-1.672,1.974-2.227,3.187
	c-0.584,1.308-1.216,2.619-2.204,3.661c-1.864,1.974-3.09,4.946-5.655,6.208c-1.234,0.62-2.885,0.492-4.009,1.49
	c-0.707-1.595,1.132-3.786,1.49-5.309c0.563-2.368,0.379-4.774,1.405-7.03c1.677-4.426-0.205-9.234,1.761-13.478
	c0.758-1.677,1.306-3.21,2.255-4.669c0.94-1.459,0.489-4.081,0.722-5.729c0.287-2.053-0.556-5.276-1.475-7.114
	c-0.323-0.66-2.691-3.922-1.672-4.685c0.886-0.691,1.006-3.315,0.579-5.34c0.351-3.082,0.54-6.226,0.54-9.403
	c0-11.197-2.248-21.888-6.313-31.613c0.166,0.069,0.315,0.174,0.532,0.197c0.85,0.061,1.236,0.632,1.917,1.011
	c1.152,0.673-1.475-4.664,0.497-3.223c1.257,0.899,2.936,1.779,4.483,2.135c0.008-0.294,0.12-0.556,0.266-0.799
	c0.96-0.325,1.81,1.134,0.533-1.265c-0.315-0.612-2.949-5.763-3.617-5.425c-0.33,0.164,0.248,0.54-0.036,0.73
	c-0.358,0.23-1.044-0.975-1.285-0.712c-0.077,0.074,0.21,0.494,0.105,0.643c-0.302,0.41-4.705-3.768-4.915-4.608
	c0.246-0.067,0.504-0.141,0.745-0.218c-0.044-0.294-0.182-0.548-0.415-0.745c0.174-0.079,0.351-0.136,0.556-0.136
	c-0.205-0.325-0.218-0.658-0.069-0.988c0.435-0.343,1.684,1.044,2.337,0.973c-0.415-1.661-3.436-4.029-4.931-4.646
	c-0.197,0.264-0.028,0.461-0.077,0.694c-0.338-0.594-1.208-0.612-1.434-1.462c0.346,0.376,0.73,0.573,1.216,0.581
	c0.33-0.292-1.362-1.746-1.51-1.907c-0.044,0.379,0,0.745,0.174,1.08c-0.525,0.343-0.806-0.317-1.298-0.338
	c0.653,2.035,3.075,5.036,4.864,6.054c0.069-0.105-1.032,0.62-0.533,0.63c-0.927-0.028-0.991,0.425-1.421,0.394
	c0,1.126,1.925,1.549,2.396,2.299c0.338,0.556,0.604,1.426,0.914,2.117c-0.676-0.225-2.383-1.743-2.368-1.718
	c-0.451-0.092-2.527-2.483-2.908-2.934c-0.745-0.863-1.124-1.324-1.841-1.802c-4.137-6.31-9.119-11.999-14.776-16.94
	c-0.013-0.443-0.64-0.814-1.224-1.047c-0.939-0.778-1.887-1.562-2.865-2.296c0.604,0.21,1.18,0.394,1.475,0.54
	c1.531,0.768,3.062,1.564,4.549,2.422c3.128,1.787,6.126,3.743,8.991,5.893c5.908,4.426,11.231,9.587,15.831,15.352
	c4.89,6.103,8.934,12.879,11.999,20.073c1.144,2.675,2.007,5.366,2.788,8.061c-2.488-6.07-7.759-15.13-8.202-14.84
	c-0.556,0.374,4.065,7.142,4.419,8.023c0.195,0.461,0.161,0.376,0.097,0.225c1.656,3.845,3.4,7.644,4.895,11.553
	c0.036-0.087,0.028-0.238,0.036-0.356c0.499,1.925,0.991,3.863,1.526,5.798h-0.008C342.666,247.844,342.646,254.892,341.632,262.313
	z M338.964,254.162c0.082-0.461,0.407-0.863,0.189-1.467C339.036,253.256,338.775,253.676,338.964,254.162z M338.452,256.901
	c0.166-0.256,0.3-0.443,0.161-0.745C338.417,256.363,338.429,256.609,338.452,256.901z M336.906,279.066
	c-0.051,0.02-0.95,0.463-0.632,0.463c0.166-0.056,0.358-0.113,0.532-0.189c-0.125,0.197,0.051-0.054,0,0
	C336.858,279.283,336.858,279.217,336.906,279.066z M337.902,268.831c-0.827,0.527-0.847,0.579-0.842,1.393
	C337.152,269.681,337.743,269.419,337.902,268.831z M337.994,265.987c0,0.66-0.036,2.45,0.374,2.99
	c0.084-2.598-0.044-5.202-0.105-7.78C337.925,262.684,337.979,264.463,337.994,265.987
	C337.987,265.426,337.994,266.506,337.994,265.987z M339.343,270.84c0-0.161,0.064-0.33-0.133-0.571
	c-0.054,2.348-0.911,4.467-1.014,6.828C339.126,276.006,339.323,272.23,339.343,270.84
	C339.343,270.986,339.343,270.676,339.343,270.84z M340.431,256.66c0.113-0.486-0.028-0.814-0.197-1.216
	c-1.265,0.727-0.822,3.08-0.806,4.319c0.998-0.906,0.617-1.431,0.998-3.062C340.452,256.556,340.488,256.458,340.431,256.66z
	 M286.065,337.167c0-0.008,0-0.031,0-0.031c-0.036-0.013-0.044,0.015-0.054,0.051C286.029,337.188,286.044,337.188,286.065,337.167z
	 M337.51,285.412c-0.051,0.105-0.09,0.218-0.141,0.33C337.434,285.645,337.51,285.553,337.51,285.412z M337.019,286.664
	c-0.438,0.865-0.724,1.777-1.075,2.675C336.346,288.448,336.73,287.59,337.019,286.664z"/>
<g>
	<path style="fill:#34495E;" d="M262.679,391.808c-1.723-1.175-3.505-19.292-4.726-49.149c-0.929-22.802-1.541-52.47-1.541-86.661
		c0-34.189,0.612-63.857,1.541-86.669c1.216-30.093,2.99-48.264,4.69-49.165c1.736,0.904,3.564,19.348,4.769,49.892
		c0.33,0.036,0.66,0.095,0.983,0.128c-0.141-3.666-0.315-7.201-0.463-10.593c-2.01-40.379-4.37-40.379-5.253-40.379
		c-0.901,0-3.251,0-5.243,40.379c-0.159,3.126-0.312,6.359-0.445,9.723c-0.996,24.356-1.539,54.666-1.539,86.682
		c0,32.013,0.54,62.333,1.539,86.689c0.133,3.361,0.289,6.592,0.445,9.725c1.992,40.376,4.342,40.376,5.243,40.376
		c0.883,0,3.243,0,5.253-40.376c0.148-3.389,0.323-6.93,0.463-10.606c-0.323,0.051-0.653,0.1-0.983,0.143
		C266.204,372.219,264.407,390.62,262.679,391.808z"/>
	<path style="fill:#34495E;" d="M345.539,293.778c-2.752-2.066-5.668-4.193-8.714-6.377c-0.105,0.31-0.225,0.617-0.366,0.934
		c2.97,2.112,5.814,4.193,8.517,6.216c19.932,14.93,30.643,25.915,28.654,29.363c-0.479,0.822-1.728,1.244-3.743,1.244
		c-7.508,0-24.049-5.814-45.681-15.662c-21.637-9.833-48.353-23.675-76.157-39.724c-27.402-15.828-52.741-31.949-72.512-46.098
		c-2.975-2.125-5.814-4.206-8.504-6.223c-19.932-14.94-30.648-25.915-28.669-29.361c0.479-0.819,1.728-1.236,3.735-1.236
		c7.516,0,24.061,5.811,45.678,15.647c0.205-0.269,0.394-0.517,0.617-0.773c-21.883-9.933-38.671-15.834-46.295-15.834
		c-2.373,0-3.904,0.576-4.557,1.708c-2.985,5.171,14.075,19.5,28.913,30.618c2.76,2.068,5.663,4.201,8.709,6.374
		c19.781,14.141,45.053,30.228,72.41,46.001c27.704,15.982,54.356,29.814,76.017,39.672c21.898,9.938,38.684,15.839,46.298,15.839
		c2.381,0,3.912-0.576,4.572-1.715C377.439,319.235,360.376,304.888,345.539,293.778z"/>
	<path style="fill:#34495E;" d="M374.459,187.602c-0.668-1.155-2.158-1.708-4.572-1.708c-7.613,0-24.399,5.901-46.298,15.834
		c0.225,0.256,0.43,0.502,0.617,0.773c21.632-9.836,38.172-15.647,45.681-15.647c2.015,0,3.264,0.417,3.743,1.236
		c1.987,3.446-8.73,14.418-28.654,29.361c-2.703,2.017-5.548,4.099-8.517,6.223c-19.763,14.152-45.094,30.269-72.515,46.098
		c-27.802,16.049-54.518,29.891-76.163,39.724c-21.617,9.848-38.164,15.662-45.678,15.662c-2.01,0-3.259-0.422-3.735-1.244
		c-1.987-3.448,8.737-14.433,28.669-29.363c2.691-2.022,5.53-4.104,8.504-6.216c-0.133-0.317-0.256-0.625-0.374-0.934
		c-3.044,2.186-5.949,4.314-8.709,6.377c-14.84,11.11-31.898,25.457-28.925,30.612c0.671,1.16,2.163,1.715,4.57,1.715
		c7.624,0,24.412-5.901,46.295-15.831c21.663-9.861,48.323-23.69,76.032-39.68c27.348-15.775,52.634-31.877,72.394-46.001
		c3.046-2.173,5.962-4.306,8.714-6.374C360.376,207.101,377.439,192.773,374.459,187.602z"/>
</g>
<g>
	<circle style="fill:#FF8E31;" cx="166.835" cy="217.907" r="8.187"/>
	<path style="fill:#FF8E31;" d="M374.374,200.484c0,4.531-3.674,8.197-8.189,8.197c-4.531,0-8.179-3.666-8.179-8.197
		c0-4.516,3.651-8.179,8.179-8.179C370.703,192.305,374.374,195.968,374.374,200.484z"/>
	<path style="fill:#FF8E31;" d="M266.486,359.718c0,4.516-3.666,8.195-8.189,8.195c-4.521,0-8.179-3.681-8.179-8.195
		c0-4.531,3.658-8.195,8.179-8.195C262.82,351.521,266.486,355.187,266.486,359.718z"/>
</g>
<g>
</g>
<g>
</g>
<g>
</g>
<g>
</g>
<g>
</g>
<g>
</g>
<g>
</g>
<g>
</g>
<g>
</g>
<g>
</g>
<g>
</g>
<g>
</g>
<g>
</g>
<g>
</g>
<g>
</g>
</svg>
